<svg width="32" height="32" viewBox="0 0 32 32" fill="none" xmlns="http://www.w3.org/2000/svg">
  <rect width="32" height="32" rx="4" fill="#D67052"/>
  <path d="M9 25V5H16.5C18 5 19.3 5.3 20.4 5.9C21.5 6.5 22.3 7.3 22.9 8.3C23.5 9.3 23.8 10.5 23.8 11.9C23.8 13.3 23.5 14.5 22.9 15.5C22.3 16.5 21.4 17.3 20.3 17.9C19.2 18.5 17.9 18.8 16.3 18.8H11.8V25H9ZM11.8 16.5H15.9C16.7 16.5 17.4 16.3 17.9 16C18.4 15.7 18.8 15.3 19.1 14.8C19.4 14.3 19.5 13.7 19.5 13C19.5 12.3 19.4 11.7 19.1 11.2C18.8 10.7 18.4 10.3 17.9 10C17.4 9.7 16.7 9.5 15.9 9.5H11.8V16.5Z" fill="#F3F0E9"/>
</svg>
